<?xml version="1.0" encoding="utf-8"?>
<!-- Generator: Adobe Illustrator 16.0.0, SVG Export Plug-In . SVG Version: 6.00 Build 0)  -->
<!DOCTYPE svg PUBLIC "-//W3C//DTD SVG 1.1//EN" "http://www.w3.org/Graphics/SVG/1.1/DTD/svg11.dtd">
<svg version="1.1" id="Layer_1" xmlns="http://www.w3.org/2000/svg" xmlns:xlink="http://www.w3.org/1999/xlink" x="0px" y="0px"
	 width="775.205px" height="163.229px" viewBox="0 0 775.205 163.229" enable-background="new 0 0 775.205 163.229"
	 xml:space="preserve">
<g>
	<path fill="#247EC2" d="M70.753,163.229H7.115c0,0-7.115-2.117-7.115-10.768c0-8.652,0-61.211,0-61.211L70.753,163.229z"/>
	<polyline fill="#247EC2" points="151.889,163.229 151.118,163.229 88.44,163.229 0,72.291 0,7.306 	"/>
</g>
<g>
	<path fill="#FFE500" d="M70.753,0L0,71.521V5.96C0,5.96,0.383,0,7.498,0S70.753,0,70.753,0z"/>
	<polygon fill="#FFE500" points="88.442,0 151.889,0 0,151.502 0,90.555 	"/>
</g>
<g>
	<path fill="none" d="M751.593,40.623c-11.668-11.859-27.162-18.39-43.627-18.39c-16.346,0-31.775,6.531-43.445,18.39
		c-11.633,11.825-18.039,27.324-18.039,43.646c0,16.32,6.406,31.82,18.039,43.644c11.67,11.859,27.102,18.392,43.445,18.392
		c16.463,0,31.957-6.532,43.627-18.392c11.516-11.7,17.855-27.2,17.855-43.644S763.109,52.325,751.593,40.623z"/>
	<polygon fill="none" points="485.574,101.37 544.533,101.37 514.966,25.468 	"/>
	<polygon fill="#FFFFFF" points="276.001,18.684 268.573,18.684 203.71,82.242 203.71,86.334 275.607,149.707 275.979,150.035 
		284.179,150.035 209.526,84.032 	"/>
	<rect x="196.711" y="18.684" fill="#FFFFFF" width="5.389" height="131.351"/>
	<path fill="#FFFFFF" d="M330.433,96.446c12.326,0,22.691-4.217,29.975-12.196c6.457-7.072,10.012-16.582,10.012-26.776
		c0-18.771-12.513-38.973-39.986-38.973h-45.878v131.534h5.389V24.073h40.489c23.771,0,34.598,17.361,34.598,33.492
		c0,8.789-3.066,16.972-8.633,23.041c-6.27,6.837-15.248,10.451-25.965,10.451h-26.357v4.659l59.729,53.98l0.376,0.338h8.153
		l-59.297-53.589H330.433z"/>
	<polygon fill="#FFFFFF" points="389.021,87.054 455.685,87.054 455.685,81.48 389.021,81.48 389.021,24.073 457.16,24.073 
		457.16,18.684 383.449,18.684 383.449,150.035 457.525,150.035 457.525,144.646 389.021,144.646 	"/>
	<path fill="#FFFFFF" d="M512.597,16.659l-52.789,133.375h5.951l17.494-43.276h63.422l17.678,43.276h5.947L517.513,16.659H512.597z
		 M485.574,101.37l29.393-75.902l29.566,75.902H485.574z"/>
	<polygon fill="#FFFFFF" points="645.003,18.5 550.484,18.5 550.484,24.073 595.052,24.073 595.052,150.589 600.439,150.589 
		600.439,24.073 645.003,24.073 	"/>
	<path fill="#FFFFFF" d="M755.492,36.57c-12.646-12.84-29.523-19.911-47.525-19.911c-17.816,0-35.074,7.26-47.344,19.911
		c-12.711,12.911-19.713,29.851-19.713,47.698c0,17.846,7.002,34.784,19.707,47.69c12.275,12.658,29.533,19.918,47.35,19.918
		c18.002,0,34.879-7.071,47.525-19.912c12.713-12.911,19.713-29.851,19.713-47.696C775.205,66.42,768.205,49.481,755.492,36.57z
		 M707.966,146.303c-16.344,0-31.775-6.532-43.445-18.392c-11.633-11.823-18.039-27.323-18.039-43.644
		c0-16.321,6.406-31.821,18.039-43.646c11.67-11.859,27.1-18.39,43.445-18.39c16.465,0,31.959,6.531,43.627,18.39
		c11.516,11.702,17.855,27.202,17.855,43.646s-6.34,31.943-17.855,43.644C739.923,139.771,724.429,146.303,707.966,146.303z"/>
</g>
</svg>
