<?xml version="1.0" encoding="utf-8"?>
<!-- Generator: Adobe Illustrator 16.0.0, SVG Export Plug-In . SVG Version: 6.00 Build 0)  -->
<!DOCTYPE svg PUBLIC "-//W3C//DTD SVG 1.1//EN" "http://www.w3.org/Graphics/SVG/1.1/DTD/svg11.dtd">
<svg version="1.1" id="Layer_1" xmlns="http://www.w3.org/2000/svg" xmlns:xlink="http://www.w3.org/1999/xlink" x="0px" y="0px"
	 width="647.968px" height="193.49px" viewBox="0 0 647.968 193.49" enable-background="new 0 0 647.968 193.49"
	 xml:space="preserve">
<g>
	<path fill="#58595B" d="M86.554,180.587H22.916c0,0-7.115-2.117-7.115-10.768c0-8.652,0-61.211,0-61.211L86.554,180.587z"/>
	<polyline fill="#58595B" points="167.69,180.587 166.919,180.587 104.241,180.587 15.801,89.649 15.801,24.663 	"/>
</g>
<g>
	<path fill="#FFE500" d="M86.554,17.358L15.801,88.88V23.317c0,0,0.383-5.959,7.498-5.959
		C30.414,17.358,86.554,17.358,86.554,17.358z"/>
	<polygon fill="#FFE500" points="104.244,17.358 167.69,17.358 15.801,168.86 15.801,107.913 	"/>
</g>
<g>
	<path stroke="#000000" stroke-width="2" stroke-miterlimit="10" d="M196.042,32.755v98.018h-2.104V32.755H196.042z M199.267,80.571
		l48.798-47.816h2.804L201.23,81.554l55.669,49.218h-3.225l-54.407-47.957V80.571L199.267,80.571z"/>
	<path stroke="#000000" stroke-width="2" stroke-miterlimit="10" d="M262.93,130.772h-2.104V33.737v-1.121h1.122h32.812
		c39.264,0,39.264,57.352,0,57.352h-15.845l45.152,40.805h-3.226L275.69,89.968v-2.104h19.07c36.458,0,36.458-53.006,0-53.006
		h-31.83V130.772z"/>
	<path stroke="#000000" stroke-width="2" stroke-miterlimit="10" d="M338.373,128.669h52.162v2.104h-54.127h-0.279V32.755h54.129
		v2.104h-51.885v45.713h50.762v2.244h-50.762V128.669L338.373,128.669z"/>
	<path stroke="#000000" stroke-width="2" stroke-miterlimit="10" d="M460.089,97.819h-49.639l-13.322,32.953h-2.383l39.402-99.56
		h2.385l39.402,99.56h-2.385L460.089,97.819z M411.431,95.716h47.818l-23.98-61.557L411.431,95.716z"/>
	<path stroke="#000000" stroke-width="2" stroke-miterlimit="10" d="M497.253,131.194V34.858h-33.936v-2.242h69.973v2.242h-33.936
		v96.336H497.253z"/>
	<path stroke="#000000" stroke-width="2" stroke-miterlimit="10" d="M546.896,46.077c8.975-9.254,21.596-14.863,35.338-14.863
		c13.881,0,26.361,5.609,35.475,14.863c8.975,9.113,14.725,21.734,14.725,35.617c0,13.881-5.75,26.502-14.725,35.618
		c-9.113,9.254-21.594,14.862-35.475,14.862c-13.742,0-26.363-5.608-35.338-14.862c-8.975-9.115-14.723-21.736-14.723-35.618
		C532.173,67.812,537.921,55.19,546.896,46.077z M616.166,47.759c-8.693-8.834-20.752-14.301-33.932-14.301
		c-13.184,0-25.104,5.467-33.795,14.301c-8.555,8.695-14.023,20.613-14.023,33.936c0,13.32,5.469,25.24,14.023,33.934
		c8.691,8.834,20.611,14.304,33.795,14.304c13.18,0,25.238-5.47,33.932-14.304c8.555-8.692,13.883-20.613,13.883-33.934
		C630.048,68.372,624.72,56.454,616.166,47.759z"/>
</g>
<g>
	<path fill="#58595B" d="M193.012,147.884h1.981v25.443h-1.981V147.884z"/>
	<path fill="#58595B" d="M210.622,154.87h1.358l0.623,2.154c2.085-1.252,4.234-2.467,7.049-2.467c3.685,0,5.701,2.85,5.701,5.907
		v12.861h-1.981v-12.861c0-2.446-1.498-3.928-3.719-3.928c-2.875,0-4.408,0.707-7.049,2.028v14.761h-1.981L210.622,154.87
		L210.622,154.87z"/>
	<path fill="#58595B" d="M238.819,155.343l3.264-0.508l0.507-5.145h1.474v5.145h5.624v1.98h-5.624v9.932
		c0,3.852,1.261,4.357,2.395,4.588c0,0,2.673,0.611,2.917,0.611v1.369h-2.811c-2.759,0-4.482-1.774-4.482-6.568v-9.932h-3.264
		V155.343L238.819,155.343z"/>
	<path fill="#58595B" d="M271.616,154.731c4.298,0,7.044,0.416,7.044,6.533c0,2.7-1.531,3.945-4.75,3.945h-8.022
		c0,5.255,1.272,6.309,4.09,6.309c3.198,0,5.728-0.082,8.335-0.465v1.475c-2.815,0.799-5.45,0.984-8.335,0.973
		c-4.705-0.023-6.071-2.4-6.071-9.488C263.907,155.81,266.105,154.731,271.616,154.731z M273.911,163.265
		c1.671,0,2.769-0.414,2.769-1.998c0-4.183-1.168-4.555-5.041-4.555c-4.235,0-5.751,0.377-5.751,6.553H273.911z"/>
	<path fill="#58595B" d="M293.661,154.87h1.334l0.646,2.328c2.121-1.217,4.174-2.537,7.119-2.537c1.008,0,2.061,0.058,2.572,0.277
		v1.946c-0.559-0.128-1.564-0.221-2.572-0.221c-2.887,0-4.442,0.86-7.119,2.146v14.517h-1.981L293.661,154.87L293.661,154.87z"/>
	<path fill="#58595B" d="M319.557,154.87h1.358l0.623,2.154c2.085-1.252,4.233-2.467,7.049-2.467c3.685,0,5.699,2.85,5.699,5.907
		v12.861h-1.979v-12.861c0-2.446-1.498-3.928-3.72-3.928c-2.875,0-4.408,0.707-7.049,2.028v14.761h-1.981V154.87z"/>
	<path fill="#58595B" d="M356.636,154.731c4.298,0,7.045,0.416,7.045,6.533c0,2.7-1.532,3.945-4.751,3.945h-8.022
		c0,5.255,1.272,6.309,4.09,6.309c3.198,0,5.729-0.082,8.336-0.465v1.475c-2.814,0.799-5.449,0.984-8.336,0.973
		c-4.703-0.023-6.07-2.4-6.07-9.488C348.927,155.81,351.125,154.731,356.636,154.731z M358.93,163.265
		c1.672,0,2.771-0.414,2.771-1.998c0-4.183-1.168-4.555-5.041-4.555c-4.234,0-5.752,0.377-5.752,6.553H358.93z"/>
	<path fill="#58595B" d="M377.126,155.343l3.264-0.508l0.508-5.145h1.475v5.145h5.623v1.98h-5.623v9.932
		c0,3.852,1.26,4.357,2.395,4.588c0,0,2.673,0.611,2.916,0.611v1.369h-2.811c-2.76,0-4.481-1.774-4.481-6.568v-9.932h-3.265V155.343
		L377.126,155.343z"/>
	<path fill="#58595B" d="M424.539,160.604l2.988-2.537l-2.189-2.955c-2.746-3.719-0.059-6.728,2.422-7.102
		c3.346-0.418,6.754,0.01,9.258,0.471v1.313h-7.057c-3.084,0-5.127,1.387-2.574,4.831l8.809,11.929l4.434-4.49l0.635,0.646
		l-1.984,3.472l-1.863,1.906l3.795,5.24h-2.385l-2.852-3.858l-2.502,2.329c-2.803,2.607-7.586,2.236-10.184-1.32
		C420.644,167.116,421.513,163.177,424.539,160.604z M432.031,170.438l2.723-2.549l-6.098-8.175l-2.711,2.259
		c-2.898,2.4-2.824,5.014-0.988,7.407C426.607,171.532,429.894,172.448,432.031,170.438z"/>
	<path fill="#58595B" d="M477.13,147.884h9.23c7.834,0,9.025,7.611,9.025,12.826c0,5.77-2.412,12.617-9.025,12.617h-9.23V147.884z
		 M486.361,171.276c5.002,0,7.045-5.32,7.045-10.603c0-7.698-2.635-10.812-7.045-10.812h-7.248v21.412h7.248V171.276z"/>
	<path fill="#58595B" d="M517.083,154.731c4.299,0,7.045,0.416,7.045,6.533c0,2.7-1.531,3.945-4.75,3.945h-8.023
		c0,5.255,1.273,6.309,4.092,6.309c3.197,0,5.729-0.082,8.336-0.465v1.475c-2.816,0.799-5.451,0.984-8.336,0.973
		c-4.705-0.023-6.07-2.4-6.07-9.488C509.375,155.81,511.572,154.731,517.083,154.731z M519.378,163.265
		c1.672,0,2.77-0.414,2.77-1.998c0-4.183-1.168-4.555-5.039-4.555c-4.236,0-5.752,0.377-5.752,6.553H519.378z"/>
	<path fill="#58595B" d="M538.351,159.226c0-2.851,1.217-4.529,4.797-4.529c1.809,0,6.91,0.3,8.719,0.474v1.474h-8.719
		c-2.461,0-2.814,0.953-2.814,2.584v1.599c0,2.278,1.08,2.336,2.814,2.336h5.139c2.893,0,4.518,1.7,4.518,4.307v1.703
		c0,3.788-2.293,4.331-4.518,4.331c-1.703,0-7.85-0.415-9.17-0.555v-1.428h9.17c0.555,0,2.537,0.127,2.537-2.35v-1.703
		c0-1.382-0.689-2.324-2.537-2.324h-5.139c-3.268,0-4.797-0.737-4.797-4.317V159.226z"/>
	<path fill="#58595B" d="M567.421,149.851c0-0.438,0.23-0.716,0.693-0.716h1.275c0.438,0,0.658,0.312,0.658,0.716v1.971
		c0,0.439-0.254,0.671-0.658,0.671h-1.275c-0.404,0-0.693-0.267-0.693-0.671V149.851z M567.699,154.87h1.98v18.457h-1.98V154.87z"/>
	<path fill="#58595B" d="M587.31,166.563c-1.885-0.998-2.359-3.28-2.359-5.193c0-4.475,2.117-6.57,6.002-6.57h10.846v1.451
		l-3.17,0.531c0.465,0.635,1.432,1.554,1.432,4.588c0,2.086-0.799,6.494-5.734,6.494h-5.422c-0.557,0-1.992,0.15-1.992,1.361
		c0,1.069,1.045,1.441,1.885,1.441h7.322c3.012,0,4.672,1.898,4.672,4.736v2.072c0,2.086-0.66,5.234-5.213,5.234h-5.215
		c-3.268,0-5.516-1.797-5.516-5.354v-3.062l1.061-2.731c-0.725-0.57-0.955-1.51-0.955-2.295
		C584.951,168.159,585.677,166.771,587.31,166.563z M590.361,180.731h5.215c2.18,0,3.23-1.064,3.23-3.254v-1.957
		c0-1.775-0.598-2.883-2.988-2.883h-6.977c-1.35,0-2.002-0.527-2.002-0.527v5.248C586.839,180.356,589.085,180.731,590.361,180.731z
		 M590.708,165.871h3.453c3.113,0,3.963-2.548,3.916-4.501c-0.068-2.953-1.027-4.588-3.432-4.588h-3.813
		c-3.182,0-3.902,2.168-3.902,4.588C586.931,163.747,587.937,165.871,590.708,165.871z"/>
	<path fill="#58595B" d="M616.015,154.87h1.359l0.623,2.154c2.084-1.252,4.232-2.467,7.049-2.467c3.684,0,5.699,2.85,5.699,5.907
		v12.861h-1.98v-12.861c0-2.446-1.498-3.928-3.719-3.928c-2.875,0-4.408,0.707-7.049,2.028v14.761h-1.982V154.87z"/>
</g>
</svg>
